<?xml version="1.0" standalone="no"?>
<!DOCTYPE svg PUBLIC "-//W3C//DTD SVG 20010904//EN"
 "http://www.w3.org/TR/2001/REC-SVG-20010904/DTD/svg10.dtd">
<svg version="1.0" xmlns="http://www.w3.org/2000/svg"
 width="500.000000pt" height="500.000000pt" viewBox="0 0 500.000000 500.000000"
 preserveAspectRatio="xMidYMid meet">

<g transform="translate(0.000000,500.000000) scale(0.100000,-0.100000)"
fill="#000000" stroke="none">
<path d="M2310 4204 c-14 -2 -68 -11 -120 -20 -130 -22 -338 -92 -459 -154
-479 -246 -797 -663 -913 -1200 -19 -92 -22 -134 -22 -330 0 -255 12 -336 84
-551 198 -595 715 -1033 1345 -1139 174 -30 453 -25 615 10 352 75 667 250
905 502 492 519 609 1289 295 1933 -231 473 -679 817 -1205 926 -77 16 -146
22 -300 24 -110 2 -211 1 -225 -1z m980 -1514 c7 -14 13 -199 10 -382 l0 -38
-45 0 -45 0 0 75 0 75 -35 0 -35 0 0 -75 0 -75 -50 0 -50 0 0 199 c0 184 1
200 20 224 18 23 29 26 93 29 82 3 123 -6 137 -32z m-1860 10 c11 -11 20 -28
20 -37 0 -10 3 -28 6 -40 6 -22 3 -23 -45 -23 -48 0 -51 1 -51 26 0 22 -4 25
-27 22 -26 -3 -28 -7 -31 -55 l-3 -53 56 0 c46 0 60 -4 80 -25 22 -22 25 -32
25 -104 0 -44 -4 -91 -9 -104 -13 -35 -60 -50 -137 -45 -81 5 -104 26 -104 94
l0 44 45 0 c43 0 45 -1 45 -30 0 -28 3 -30 35 -30 l35 0 0 54 0 54 -61 4 c-87
6 -99 23 -99 139 0 119 9 129 120 129 67 0 83 -3 100 -20z m190 -75 l0 -95 41
0 40 0 -1 63 c-3 134 -6 127 45 127 l45 0 0 -225 0 -225 -45 0 -45 0 -1 38 c0
20 0 58 1 85 l1 47 -40 0 -41 0 0 -85 0 -85 -50 0 -50 0 0 218 c0 120 3 222 7
225 3 4 26 7 50 7 l43 0 0 -95z m447 85 c17 -6 35 -22 42 -36 16 -37 14 -126
-5 -152 -11 -16 -13 -27 -6 -35 6 -7 12 -58 14 -115 l3 -102 -47 0 -48 0 0 90
0 90 -30 0 -30 0 0 -90 0 -90 -50 0 -50 0 0 225 0 225 89 0 c48 0 102 -5 118
-10z m321 -32 c3 -41 1 -42 -75 -38 l-33 2 0 -57 0 -57 33 2 c64 4 67 2 67
-35 l0 -35 -50 0 -50 0 0 -55 0 -55 55 0 55 0 0 -40 0 -40 -105 0 -105 0 0
225 0 226 103 -3 102 -3 3 -37z m260 0 l3 -38 -55 0 -56 0 0 -55 0 -55 50 0
50 0 0 -35 0 -35 -50 0 -50 0 0 -55 0 -55 55 0 55 0 0 -40 0 -40 -105 0 -105
0 0 225 0 226 103 -3 102 -3 3 -37z m150 -55 l3 -93 34 0 35 0 0 95 0 95 50 0
50 0 0 -225 0 -225 -50 0 -50 0 0 85 0 85 -35 0 -35 0 0 -85 0 -85 -50 0 -50
0 0 226 0 225 48 -3 47 -3 3 -92z m813 68 c23 -29 27 -137 5 -166 -12 -17 -12
-22 0 -39 10 -14 14 -51 14 -118 l0 -98 -50 0 -50 0 0 90 0 90 -30 0 -30 0 0
-90 0 -90 -50 0 -50 0 0 218 c0 120 3 222 8 226 4 4 54 6 110 4 95 -3 105 -5
123 -27z m179 -196 l0 -225 -50 0 -50 0 0 218 c0 120 3 222 7 225 3 4 26 7 50
7 l43 0 0 -225z"/>
<path d="M3140 2575 l0 -86 33 3 32 3 0 80 0 80 -32 3 -33 3 0 -86z"/>
<path d="M1960 2585 l0 -65 30 0 30 0 0 65 0 65 -30 0 -30 0 0 -65z"/>
<path d="M3470 2585 l0 -65 30 0 30 0 0 65 0 65 -30 0 -30 0 0 -65z"/>
</g>
</svg>
