<?xml version="1.0" standalone="yes"?>
<svg xmlns="http://www.w3.org/2000/svg" width="500" height="500">
<path style="fill:#070707; stroke:none;" d="M0 0L0 500L500 500L500 0L0 0z"/>
<path style="fill:#494949; stroke:none;" d="M156 156L156 228L157 228L157 158L183 183L158 157C183.017 157 213.679 152.21 238 158C232.566 153.884 221.626 156 215 156L156 156z"/>
<path style="fill:#b85144; stroke:none;" d="M237 156L237 157C243.348 157 257.625 154.342 262.682 158.603C267.056 162.288 263.697 169.206 265.742 173.867C267.854 178.678 283.943 184.2 289 185.319C296.81 187.047 298.99 176.485 305.576 176.485C310.275 176.485 320.234 188.174 322.418 192C325.814 197.948 315.739 202.454 314.619 208C313.438 213.845 319.896 222.576 322 228C323.413 221.172 315.732 215.59 316.38 209C316.912 203.581 323.761 201.137 325.149 196C326.836 189.759 311.88 175.199 306 174.662C299.922 174.107 297.15 182.042 292 183.748C287.8 185.139 275.176 178.367 271.019 176.351C262.392 172.167 269.588 163.049 264.258 157.603C259.835 153.086 243.058 156 237 156z"/>
<path style="fill:#494949; stroke:none;" d="M264 156L264 157L344 157L319 156L264 156z"/>
<path style="fill:#070707; stroke:none;" d="M158 157L183 183L157 158L157 228L159 226L160 226L163 234L169 234L169 228C177.364 227.97 184.68 217.79 184.176 209C183.827 202.913 174.507 200.163 175.176 194C175.747 188.737 190.456 173.646 196 175.407C201.21 177.063 203.925 184.809 210 184.273C214.654 183.863 231.553 177.219 233.397 172.867C235.283 168.412 234.098 161.856 235 157L158 157z"/>
<path style="fill:#b85144; stroke:none;" d="M235 157C233.848 161.839 235.391 168.587 232.972 172.891C230.654 177.017 212.506 185.174 208 183.608C203.198 181.94 200.452 174.867 195 174.867C189.034 174.867 179.556 186.487 176.333 191C170.767 198.792 182.972 202.217 184.006 209C184.838 214.453 178.481 222.586 177 228L178 228C180.308 222.819 186.459 213.691 185.461 208C184.344 201.63 172.876 197.567 178.272 190.91C181.414 187.036 188.819 177.463 194 176.782C198.953 176.132 202.501 183.754 207 185.215C211.688 186.736 230.094 179.215 233.397 175.49C236.853 171.591 235.135 162.116 237 157L235 157z"/>
<path style="fill:#070707; stroke:none;" d="M178 228C180.945 231.888 180 237.284 180 242C180 252.677 178.444 264.464 179.549 275C180.123 280.474 185.723 285.615 185.292 291C184.849 296.515 178.03 298.872 176.712 304C175.222 309.8 187.912 321.696 193 323.199C199.738 325.189 202.783 315.207 209 314.708C215.8 314.163 225.877 321.526 233 323C234.838 316.783 236.581 299.049 232.972 293.39C230.256 289.131 222.984 286.858 219.171 283.384C212.172 277.009 211.034 273.001 201 273L201 255L196 255L196 273L186 273L186 228L210 229C212.294 224.178 226.366 204.488 233.397 209.816C236.962 212.519 235 223.95 235 228L239 228L238 238L235 237L235 246L238 249L244 249L244 228L265 228L265 220C265.002 193.918 286.367 227.874 297 228L297 273C287.208 273.035 284.305 281.026 276.996 286.522C273.7 289 268.245 291.074 266.603 295.104C264.998 299.046 266 304.814 266 309C266 312.202 264.787 318.745 267.028 321.356C271.428 326.484 285.665 314.75 290.715 314.48C296.963 314.145 299.444 324.158 306 323.534C311.263 323.033 325.371 309.597 323.593 304C322.03 299.082 314.178 296.12 314.48 290.576C314.733 285.921 319.076 281.568 320.172 277C321.538 271.309 320 263.914 320 258L314 258L314 273L304 273L304 243C304 238.76 303.327 233.671 306.434 230.279C310.085 226.292 316.111 227.001 321 227C320.137 221.242 313.733 213.897 314.495 208.424C315.212 203.277 322.049 200.858 323.593 196C325.371 190.403 311.263 176.967 306 176.466C299.735 175.87 297.137 184.613 291.424 185.585C286.901 186.354 274.384 179.468 270.019 177.351C261.792 173.361 267.811 165.297 263.821 159.318C260.941 155.003 243.687 156 239.133 157.434C232.022 159.672 237.024 170.045 233.397 174.772C229.807 179.45 218.43 181.967 213 184.305C204.933 187.778 202.739 178.443 196 176.712C190.155 175.211 181.484 185.852 178.434 190.015C172.289 198.4 184.555 201.499 185.342 209C185.91 214.414 179.787 222.717 178 228z"/>
<path style="fill:#494949; stroke:none;" d="M230.667 158.333L231.333 158.667L230.667 158.333M265 158L266 159L265 158M269 158L270 159L269 158M341 158L342 159L341 158M226 159L227 160L226 159M264 159L265 160L264 159M273.667 159.333L274.333 159.667L273.667 159.333M340 159L341 160L340 159M223 160L224 161L223 160M235 160L236 161L235 160M277 160L278 161L277 160M339 160L340 161L339 160M219 161L220 162L219 161M280 161L281 162L280 161M338 161L339 162L338 161M217 162L218 163L217 162M283 162L284 163L283 162M214 163L215 164L214 163M336 163L337 164L336 163M212 164L213 165L212 164M290 165L291 166L290 165M334 165L335 166L334 165M292 166L293 167L292 166M294 167L295 168L294 167M332 167L333 168L332 167M204 168L205 169L204 168M202 169L203 170L202 169M330 169L331 170L330 169M299 170L300 171L299 170M199 171L200 172L199 171M328 171L329 172L328 171M197 172L196 174L197 172M302 172L303 173L302 172M326 173L327 174L326 173M193 174L194 175L193 174M243 174L243 175L248 175L243 174M252 174L252 175L257 175L252 174M265 174L266 175L265 174M191 175L192 176L191 175M194.667 175.333L195.333 175.667L194.667 175.333M235.667 175.333L236.333 175.667L235.667 175.333M263.667 175.333L264.333 175.667L263.667 175.333M305 175L306 176L305 175M324 175L325 176L324 175M190 176L191 177L190 176M192 176L193 177L192 176M229 176L230 177L229 176M270 176L271 177L270 176M189 177L190 178L189 177M230 177L231 178L230 177M269 177L270 178L269 177M322 177L323 178L322 177M188 178L189 179L188 178M187 179L188 180L187 179M279 179L280 180L279 179M320 179L321 180L320 179M186 180L187 181L186 180M218 180L219 181L218 180M221 180L222 181L221 180M278 180L279 181L278 180M185 181L186 182L185 181M216 181L217 182L216 181M318 181L319 182L318 181M184 182L185 183L184 182M214 182L215 183L214 182M212 183L213 184L212 183M287 183L288 184L287 183M182 184L183 185L182 184M184 184L185 185L184 184M289 184L290 185L289 184M292 184L293 185L292 184M181 185L182 186L181 185M185 185L196 196L196 197L193 200L196 197L197 197L217 217L197 197L197 196L199 194L197 196L196 196L185 185M211 185L212 186L211 185M288 185L289 186L288 185M314 185L315 186L314 185M180 186L181 187L180 186M291 186L292 187L291 186M179 187L180 188L179 187M207 187L208 188L207 187M312 187L310 190L312 187M178 188L179 189L178 188M294 188L296 190L294 188M177 189L178 190L177 189M204 189L203 191L204 189M176 190L177 191L176 190M175 191L176 192L175 191M298 191L301 194L298 191M308 191L283 217C290.145 211.967 305.926 199.557 308 191M176 192L177 193L176 192M175 194L176 195L175 194M324 195L325 196L324 195M173 196L174 197L173 196M325 196L326 197L325 196M327 197L329 199L327 197M171 199L172 200L171 199M306 199L309 202L306 199M329 200L330 201L329 200M169 202L170 203L169 202M190 203L189 205L190 203M331 203L332 204L331 203M168 204L169 205L168 204M241.667 205.333L242.333 205.667L241.667 205.333M257.667 205.333L258.333 205.667L257.667 205.333M311 205L312 206L311 205M315 205L316 206L315 205M332 205L333 206L332 205M167 206L168 207L167 206M237.667 206.333L238.333 206.667L237.667 206.333M262 206L263 207L262 206M184 207L185 208L184 207M187 207L188 208L187 207M234 207L235 208L234 207M265 207L266 208L265 207M333 207L334 208L333 207z"/>
<path style="fill:#b85144; stroke:none;" d="M209 230L233 209L234 228C235.523 224.371 237.375 208.117 230.941 208.867C221.508 209.966 212.462 222.08 209 230z"/>
<path style="fill:#494949; stroke:none;" d="M233 208L234 209L233 208M266 208L266 209L270 209L270 208L266 208z"/>
<path style="fill:#b85144; stroke:none;" d="M267.667 208.333L268.333 208.667L267.667 208.333z"/>
<path style="fill:#494949; stroke:none;" d="M313 208L314 209L313 208M315 208L316 209L315 208M231.667 209.333L232.333 209.667L231.667 209.333z"/>
<path style="fill:#b85144; stroke:none;" d="M265 209L264 249L265 249L267 209L265 209M269 209L269 210L290 228C285.928 219.443 278.211 211.711 269 209z"/>
<path style="fill:#494949; stroke:none;" d="M271 209L272 210L271 209M334 209L335 210L334 209M165 210L166 211L165 210M184 210L185 211L184 210M229 210L230 211L229 210z"/>
<path style="fill:#070707; stroke:none;" d="M209 249L209 250L218 281L219 281L226 273L218 273L218 228L234 228L234 210C225.224 210.904 212.108 220.583 211.024 230C210.19 237.24 213.816 242.304 209 249M266 210L264 255L254 255L254 265C260.76 264.999 264.335 265.145 270 269L270 240L270.823 229.238L280 228L280 247L287 247C287 231.023 286.996 212.162 266 210z"/>
<path style="fill:#494949; stroke:none;" d="M270 210L271 211L270 210M185 211L186 212L185 211M272 211L273 212L272 211M335 211L336 212L335 211M164 212L165 213L164 212M183 212L184 213L183 212M184 213L185 214L184 213M222 213L223 214L222 213M224 213L225 214L224 213M275 213L276 214L275 213M336 213L337 214L336 213M163 214L164 215L163 214M182 214L183 215L182 214M181 216L182 217L181 216M337 216L338 217L337 216M162 217L163 218L162 217M217 217L218 218L217 217M280 217L281 218L280 217M282 217L283 218L282 217M180 218L181 219L180 218M281 218L282 219L281 218M161.333 219.667L161.667 220.333L161.333 219.667M219 219L227 227L219 219M280 219L281 220L280 219M282 219L283 220L282 219M338 219L339 220L338 219M283 220L284 221L283 220M320 220L321 221L320 220M180 221L181 222L180 221M278 221L279 222L278 221M339 221L340 222L339 221M213 222L214 223L213 222M160 223L161 224L160 223M178 223L179 224L178 223M276 223L277 224L276 223M213 224L214 225L213 224M286 224L287 225L286 224M340.333 224.667L340.667 225.333L340.333 224.667M274 225L273 227L274 225M322 225L323 226L322 225M159.333 226.667L159.667 227.333L159.333 226.667M321 226L310 227L310 228L321 226M127 227L127 228L139 228L127 227M227 227L228 228L227 227M272 227L273 228L272 227M288 227L289 228L288 227M323 227L324 228L323 227M124 228L125 229L124 228z"/>
<path style="fill:#a1a0a0; stroke:none;" d="M125 228L126 229L125 228z"/>
<path style="fill:#fdfdfd; stroke:none;" d="M130 260L121 260C121.03 270.693 132.385 279.625 142.721 271.397C147.858 267.308 147.714 252.077 142.581 248.009C139.184 245.317 134.049 246 130 246L130 235C133.952 235.301 135.822 236.118 137 240L145 240C144.988 236.66 145.298 232.969 142.682 230.434C137.671 225.576 123.514 226.648 121.434 234.015C120.12 238.667 119.624 249.886 124.279 252.821C127.938 255.128 134.256 252.455 136.397 257.228C139.668 264.524 130.766 270.044 130 260z"/>
<path style="fill:#a1a0a0; stroke:none;" d="M140 228L141 229L140 228z"/>
<path style="fill:#494949; stroke:none;" d="M141 228L142 229L141 228M152 228L153 229L152 228z"/>
<path style="fill:#a1a0a0; stroke:none;" d="M152 273L153 273L153 229L162 229C159.296 227.866 154.239 226.994 152.603 230.318C150.952 233.674 152 239.348 152 243L152 273z"/>
<path style="fill:#494949; stroke:none;" d="M169 228L169 234L170 234L169 228z"/>
<path style="fill:#a1a0a0; stroke:none;" d="M170 228L170 229L179 229L179 273L180 241L178.972 229.603L170 228z"/>
<path style="fill:#494949; stroke:none;" d="M179 228L180 229L179 228z"/>
<path style="fill:#a1a0a0; stroke:none;" d="M186 228L186 229L206 229L186 228z"/>
<path style="fill:#494949; stroke:none;" d="M206 228L207 229L206 228z"/>
<path style="fill:#a1a0a0; stroke:none;" d="M218 228L218 229L238 229L238 236C242.635 224.834 224.278 228 218 228z"/>
<path style="fill:#494949; stroke:none;" d="M238 228L239 229L238 228z"/>
<path style="fill:#a1a0a0; stroke:none;" d="M244 228L244 229L264 229L264 236C268.635 224.834 250.278 228 244 228z"/>
<path style="fill:#494949; stroke:none;" d="M264 228L265 229L264 228z"/>
<path style="fill:#a1a0a0; stroke:none;" d="M270 228L270 229L279 229L279 247C283.071 237.298 280.82 228.008 270 228z"/>
<path style="fill:#494949; stroke:none;" d="M279 228L280 229L279 228z"/>
<path style="fill:#a1a0a0; stroke:none;" d="M287 228L287 247L288 247L289 228L287 228z"/>
<path style="fill:#fdfdfd; stroke:none;" d="M289 228L288 247L279 247L279 229L270 229L270 273L279 273L279 255C290.233 255.133 288 264.229 288 273L297 273L297 229L289 228z"/>
<path style="fill:#a1a0a0; stroke:none;" d="M290 228L290 229L297 229L290 228z"/>
<path style="fill:#494949; stroke:none;" d="M307 228L305 231L307 228z"/>
<path style="fill:#a1a0a0; stroke:none;" d="M308 228L309 229L308 228z"/>
<path style="fill:#fdfdfd; stroke:none;" d="M304 273L313 273L313 258L321 258L321 273L330 273C330 262.413 334.047 241.393 328.821 232.109C325.321 225.892 308.76 225.827 305.318 232.109C300.055 241.714 304 262.159 304 273z"/>
<path style="fill:#a1a0a0; stroke:none;" d="M325 228L326 229L325 228z"/>
<path style="fill:#494949; stroke:none;" d="M326 228L327 229L326 228M337 228L338 229L337 228z"/>
<path style="fill:#a1a0a0; stroke:none;" d="M337 273L338 273L338 229L357 229C353.383 227.482 340.786 226.121 338.028 229.603C335.825 232.385 337 238.672 337 242L337 273z"/>
<path style="fill:#494949; stroke:none;" d="M357 228L358 229L357 228M369 228L370 229L369 228z"/>
<path style="fill:#a1a0a0; stroke:none;" d="M369 273L370 273L370 229L379 229C376.296 227.866 371.239 226.994 369.603 230.318C367.952 233.674 369 239.348 369 243L369 273M123 229L124 230L123 229M142 229L143 230L142 229z"/>
<path style="fill:#fdfdfd; stroke:none;" d="M153 229L153 273L162 273L162 255L170 255L170 273L179 273L179 229L170 229L170 247L162 247L162 229L153 229z"/>
<path style="fill:#494949; stroke:none;" d="M162 229L162 234L163 234L162 229z"/>
<path style="fill:#fdfdfd; stroke:none;" d="M186 229L186 273L196 273L196 254C204.586 255.369 202 266.316 202 273L211 273C211 266.089 213.24 255.132 208 250C211.915 244.864 215.206 232.897 206.945 229.603C201.199 227.312 192.14 229 186 229z"/>
<path style="fill:#494949; stroke:none;" d="M208 229L209 230L208 229M210 229L211 230L210 229z"/>
<path style="fill:#fdfdfd; stroke:none;" d="M218 229L218 273L238 273L238 265L228 265L228 254L238 254L238 247L228 247L228 236L238 236L238 229L218 229M244 229L244 273L264 273L264 265L254 265L254 254L264 254L264 247L254 247L254 236L264 236L264 229L244 229z"/>
<path style="fill:#a1a0a0; stroke:none;" d="M327 229L328 230L327 229z"/>
<path style="fill:#fdfdfd; stroke:none;" d="M338 229L338 273L347 273L347 254C355.586 255.369 353 266.316 353 273L362 273C362 265.137 363.769 255.63 359 249C364.628 245.712 364.964 233.446 358.891 230.028C353.702 227.107 343.829 229 338 229z"/>
<path style="fill:#a1a0a0; stroke:none;" d="M359 229L360 230L359 229z"/>
<path style="fill:#fdfdfd; stroke:none;" d="M370 229L370 273L379 273L379 229L370 229z"/>
<path style="fill:#494949; stroke:none;" d="M379 229L379 273L380 273C380 260.52 383.81 240.463 379 229z"/>
<path style="fill:#a1a0a0; stroke:none;" d="M122 230L123 231L122 230M143 230L144 231L143 230M209 230L210 231L209 230z"/>
<path style="fill:#494949; stroke:none;" d="M269 230L270 231L269 230z"/>
<path style="fill:#a1a0a0; stroke:none;" d="M328 230L329 231L328 230M360 230L361 231L360 230z"/>
<path style="fill:#494949; stroke:none;" d="M121 231L122 232L121 231M144 231L145 232L144 231z"/>
<path style="fill:#a1a0a0; stroke:none;" d="M210 231L211 232L210 231z"/>
<path style="fill:#494949; stroke:none;" d="M268 231L267 233L268 231M329 231L330 232L329 231z"/>
<path style="fill:#a1a0a0; stroke:none;" d="M361 231L362 232L361 231M121 232L122 233L121 232z"/>
<path style="fill:#494949; stroke:none;" d="M304 232L305 233L304 232z"/>
<path style="fill:#a1a0a0; stroke:none;" d="M329 232L330 233L329 232z"/>
<path style="fill:#494949; stroke:none;" d="M362 232L363 233L362 232M211 233L212 234L211 233M266 233L267 234L266 233z"/>
<path style="fill:#a1a0a0; stroke:none;" d="M304 233L305 234L304 233M362 233L363 234L362 233z"/>
<path style="fill:#494949; stroke:none;" d="M120 234L120 248L121 248L120 234M145.333 234.667L145.667 235.333L145.333 234.667z"/>
<path style="fill:#b85144; stroke:none;" d="M162 234L162 235L170 235L162 234z"/>
<path style="fill:#a1a0a0; stroke:none;" d="M211 234L212 235L211 234z"/>
<path style="fill:#494949; stroke:none;" d="M314 234L314 235L320 235L314 234z"/>
<path style="fill:#b85144; stroke:none;" d="M330 234L330 235L337 235L330 234z"/>
<path style="fill:#a1a0a0; stroke:none;" d="M130 235L131 236L130 235z"/>
<path style="fill:#494949; stroke:none;" d="M131 235L131 236L136 236L131 235M162 235L162 247L163 247L162 235z"/>
<path style="fill:#070707; stroke:none;" d="M163 235L163 247L169 247L169 235L163 235z"/>
<path style="fill:#494949; stroke:none;" d="M169 235L169 247L170 247L169 235z"/>
<path style="fill:#070707; stroke:none;" d="M196 235L196 248C204.267 247.356 204.266 235.644 196 235z"/>
<path style="fill:#494949; stroke:none;" d="M201 235L202 236L201 235z"/>
<path style="fill:#a1a0a0; stroke:none;" d="M313 235L313 251L321 251L321 235L320 235L320 250L314 250L313 235z"/>
<path style="fill:#070707; stroke:none;" d="M314 235L314 250L320 250L320 235L314 235z"/>
<path style="fill:#494949; stroke:none;" d="M330 235L330 265L331 265L330 235z"/>
<path style="fill:#070707; stroke:none;" d="M331 235L331 265L337 265L337 235L331 235z"/>
<path style="fill:#494949; stroke:none;" d="M347 235L347 248L348 248L347 235z"/>
<path style="fill:#070707; stroke:none;" d="M348 235L348 248C354.543 246.908 353 240.326 353 235L348 235z"/>
<path style="fill:#a1a0a0; stroke:none;" d="M353 235L353 247L354 247L353 235M136 236L136 240L137 240L136 236M145 236L145 240L146 240L145 236M202 236L202 247L203 247L202 236z"/>
<path style="fill:#494949; stroke:none;" d="M228 236L228 237L234 237L228 236z"/>
<path style="fill:#b85144; stroke:none;" d="M234 236L235 247L236 247L234 236z"/>
<path style="fill:#494949; stroke:none;" d="M235 236L235 237L239 237L235 236M254 236L254 237L262 237L254 247L264 247L264 246L255 246L265 237L254 236M363 236L363 244L364 244L363 236z"/>
<path style="fill:#070707; stroke:none;" d="M228 237L228 246L234 246L234 237L228 237M254 237L254 245L262 237L254 237M255 246L265 247L265 237L255 246z"/>
<path style="fill:#494949; stroke:none;" d="M238 238L243 243L238 238M243 243L244 244L243 243z"/>
<path style="fill:#a1a0a0; stroke:none;" d="M211.333 244.667L211.667 245.333L211.333 244.667z"/>
<path style="fill:#494949; stroke:none;" d="M130 245L130 246L137 246L130 245z"/>
<path style="fill:#a1a0a0; stroke:none;" d="M140 246L141 247L140 246z"/>
<path style="fill:#494949; stroke:none;" d="M141 246L142 247L141 246M211 246L212 247L211 246M228 246L228 247L234 247L228 246z"/>
<path style="fill:#a1a0a0; stroke:none;" d="M234 246L235 247L234 246z"/>
<path style="fill:#494949; stroke:none;" d="M236.667 246.333L237.333 246.667L236.667 246.333z"/>
<path style="fill:#a1a0a0; stroke:none;" d="M362 246L363 247L362 246M142 247L143 248L142 247z"/>
<path style="fill:#494949; stroke:none;" d="M143 247L144 248L143 247M201 247L202 248L201 247z"/>
<path style="fill:#a1a0a0; stroke:none;" d="M210 247L211 248L210 247z"/>
<path style="fill:#494949; stroke:none;" d="M352 247L353 248L352 247z"/>
<path style="fill:#a1a0a0; stroke:none;" d="M209 248L210 249L209 248z"/>
<path style="fill:#494949; stroke:none;" d="M361 248L362 249L361 248z"/>
<path style="fill:#a1a0a0; stroke:none;" d="M121 249L122 250L121 249M144 249L145 250L144 249M208 249L209 250L208 249z"/>
<path style="fill:#b85144; stroke:none;" d="M238 249L238 251L244 251L244 249L238 249z"/>
<path style="fill:#a1a0a0; stroke:none;" d="M359 249L360 250L359 249z"/>
<path style="fill:#494949; stroke:none;" d="M121 250L122 251L121 250M145 250L146 251L145 250z"/>
<path style="fill:#a1a0a0; stroke:none;" d="M209 250L210 251L209 250M360 250L361 251L360 250M145.333 251.667L145.667 252.333L145.333 251.667z"/>
<path style="fill:#494949; stroke:none;" d="M210 251L211 252L210 251z"/>
<path style="fill:#070707; stroke:none;" d="M238 251L238 255L228 255L228 265C236.191 264.903 243.355 259.558 244 251L238 251z"/>
<path style="fill:#a1a0a0; stroke:none;" d="M361 251L362 252L361 251z"/>
<path style="fill:#494949; stroke:none;" d="M122 252L123 253L122 252M362 252L363 253L362 252M123 253L124 254L123 253z"/>
<path style="fill:#a1a0a0; stroke:none;" d="M124 253L125 254L124 253z"/>
<path style="fill:#494949; stroke:none;" d="M211.333 253.667L211.667 254.333L211.333 253.667z"/>
<path style="fill:#a1a0a0; stroke:none;" d="M362 253L362 273L363 273L362 253z"/>
<path style="fill:#494949; stroke:none;" d="M125 254L126 255L125 254z"/>
<path style="fill:#a1a0a0; stroke:none;" d="M126 254L126 255L135 255L126 254M196 254L196 255L201 255L196 254z"/>
<path style="fill:#494949; stroke:none;" d="M228 254L228 255L238 255L228 254M254 254L254 255L264 255L254 254z"/>
<path style="fill:#a1a0a0; stroke:none;" d="M347 254L347 255L352 255L347 254M136 255L137 256L136 255M162 255L162 256L170 256L162 255z"/>
<path style="fill:#494949; stroke:none;" d="M201 255L201 273L202 273L201 255z"/>
<path style="fill:#a1a0a0; stroke:none;" d="M211 255L211 273L212 273L211 255M279 255L279 273L280 273L280 256L287 256L279 255z"/>
<path style="fill:#494949; stroke:none;" d="M347 255L347 273L348 273L347 255M136 256L136 266L137 266L136 256M162 256L162 265L163 265L162 256z"/>
<path style="fill:#070707; stroke:none;" d="M163 256L163 265L169 265L169 256L163 256z"/>
<path style="fill:#494949; stroke:none;" d="M169 256L169 265L170 265L169 256M243 256L244 257L243 256M256 256L264 264L256 256z"/>
<path style="fill:#a1a0a0; stroke:none;" d="M287 256L287 273L288 273L287 256z"/>
<path style="fill:#494949; stroke:none;" d="M242 257L243 258L242 257M241 258L242 259L241 258z"/>
<path style="fill:#a1a0a0; stroke:none;" d="M313 258L313 273L314 273L313 258M320 258L320 273L321 273L320 258z"/>
<path style="fill:#494949; stroke:none;" d="M240 259L241 260L240 259M120 260L120 267L121 267L120 260M239 260L240 261L239 260M238 261L239 262L238 261M237 262L238 263L237 262M236 263L237 264L236 263M235 264L236 265L235 264M264 264L266 266L264 264z"/>
<path style="fill:#b85144; stroke:none;" d="M162 265L162 266L170 266L162 265z"/>
<path style="fill:#a1a0a0; stroke:none;" d="M238 265L238 273L239 273L238 265M264 265L264 273L265 273L264 265z"/>
<path style="fill:#b85144; stroke:none;" d="M330 265L330 266L337 266L330 265z"/>
<path style="fill:#a1a0a0; stroke:none;" d="M131 266L131 267L136 267L131 266z"/>
<path style="fill:#494949; stroke:none;" d="M162 266L162 273L163 273L162 266z"/>
<path style="fill:#070707; stroke:none;" d="M163 266L163 273L157 273L157 342L183 317L183 316C180.334 313.327 174.711 309.287 175.176 305C175.712 300.059 181.934 297.435 183.716 293C187.217 284.285 176.88 273.028 169 273L169 266L163 266z"/>
<path style="fill:#494949; stroke:none;" d="M169 266L169 273L170 273L169 266M266 266L267 267L266 266M330 266L330 273L331 273L330 266z"/>
<path style="fill:#a1a0a0; stroke:none;" d="M145 267L146 268L145 267z"/>
<path style="fill:#494949; stroke:none;" d="M267 267L268 268L267 267z"/>
<path style="fill:#a1a0a0; stroke:none;" d="M121 268L122 269L121 268z"/>
<path style="fill:#494949; stroke:none;" d="M145 268L146 269L145 268M268 268L269 269L268 268M121 269L122 270L121 269M269 269L270 270L269 269z"/>
<path style="fill:#a1a0a0; stroke:none;" d="M144 270L145 271L144 270z"/>
<path style="fill:#494949; stroke:none;" d="M122 271L123 272L122 271z"/>
<path style="fill:#a1a0a0; stroke:none;" d="M143 271L144 272L143 271M124 272L125 273L124 272M142 272L143 273L142 272z"/>
<path style="fill:#494949; stroke:none;" d="M125.667 273.333L126.333 273.667L125.667 273.333z"/>
<path style="fill:#a1a0a0; stroke:none;" d="M127 273L127 274L140 274L127 273z"/>
<path style="fill:#494949; stroke:none;" d="M140 273L141 274L140 273M156 273L156 344L344 344L344 343C329.445 341.4 313.702 343 299 343L206 343L171 343C167.497 343 161.337 344.131 158.603 341.397C155.095 337.888 157 327.59 157 323C157 308.962 161.406 285.883 156 273M159 273L160 274L159 273z"/>
<path style="fill:#b85144; stroke:none;" d="M177 273C178.701 277.995 184.803 285.774 184.006 291C182.972 297.783 170.768 301.208 176.333 309C179.494 313.427 189.735 326.314 196 325.03C201.762 323.849 204.516 315.022 211 316.219C215.449 317.04 231.007 328.458 234.397 321.678C235.835 318.802 235 314.124 235 311C235 305.995 236.574 297.663 233.972 293.21C229.574 285.681 217.724 280.512 212 273L211 273L232.972 294.213L234 323C225.577 321.756 218.128 315.348 210 314.499C203.579 313.829 201.253 321.086 196 322.963C191.046 324.733 177.783 310.842 176.613 306.285C175.5 301.95 183.112 297.602 184.806 294C187.228 288.849 181.227 276.172 177 273z"/>
<path style="fill:#494949; stroke:none;" d="M226 273L227 274L226 273M273 273L274 274L273 273z"/>
<path style="fill:#b85144; stroke:none;" d="M288 273L276 287C280.831 284.747 288.482 278.867 288 273z"/>
<path style="fill:#494949; stroke:none;" d="M321 273L323 275L321 273z"/>
<path style="fill:#b85144; stroke:none;" d="M322 273L323 274L322 273z"/>
<path style="fill:#494949; stroke:none;" d="M225 274L226 275L225 274M274 274L275 275L274 274z"/>
<path style="fill:#b85144; stroke:none;" d="M321 274C319.242 279.162 313.506 286.49 314.619 292C315.739 297.546 325.814 302.052 322.418 308C320.291 311.727 309.318 324.623 304.576 323.387C298.902 321.909 296.798 313.789 290 314.499C284.575 315.066 272.796 325.407 267.603 321.212C265.081 319.174 266 313.827 266 311C265.999 299.173 265.257 294.278 276 288L276 287C263.516 291.544 265 299.395 265 311C265 314.074 263.768 320.829 266.603 322.958C272.74 327.564 283.984 316.46 290 316.017C296.605 315.531 299.146 325.964 306 325.338C311.88 324.801 326.836 310.241 325.149 304C323.761 298.863 316.912 296.419 316.38 291C315.79 284.999 322.715 280.183 321 274z"/>
<path style="fill:#494949; stroke:none;" d="M340.333 274.667L340.667 275.333L340.333 274.667M213 275L214 276L213 275M224 275L225 276L224 275M160 276L161 277L160 276M223 276L224 277L223 276M276 276L277 277L276 276M287 276L288 277L287 276M213 277L214 278L213 277M222 277L223 278L222 277M277 277L278 278L277 277M180 278L181 279L180 278M221 278L222 279L221 278M278 278L279 279L278 278M339 278L340 279L339 278M161.333 279.667L161.667 280.333L161.333 279.667M220 279L221 280L220 279M279 279L280 280L279 279M283 279L284 280L283 279M320 279L321 280L320 279M219 280L220 281L219 280M280 280L281 281L280 280M282 280L283 281L282 280M338 280L339 281L338 280M180 281L181 282L180 281M281 281L282 282L281 281M162 282L163 283L162 282M217 282L218 283L217 282M280 282L281 283L280 282M282 282L283 283L282 282M181 283L182 284L181 283M216 283L197 303L196 303L193 300L196 303L196 304L185 315L196 304L197 304L199 306L197 304L197 303C202.875 298.861 214.28 290.094 216 283M279 283L280 284L279 283M283 283C290.465 293.598 302.402 305.534 313 313C305.535 302.402 293.598 290.466 283 283M337 283L338 284L337 283M163 285L164 286L163 285M182 285L183 286L182 285M224 286L225 287L224 286M336 286L337 287L336 286M164 287L165 288L164 287M183 287L184 288L183 287M185 288L186 289L185 288M272 288L273 289L272 288M335 288L336 289L335 288M165 289L166 290L165 289M184 289L185 290L184 289M229 289L230 290L229 289M270 289L271 290L270 289M231 290L232 291L231 290M268 290L269 291L268 290M271 290L272 291L271 290M334 290L335 291L334 290M233 291L234 292L233 291M269 291L270 292L269 291M313 291L314 292L313 291M315 291L316 292L315 291M184 292L185 293L184 292M187 292L188 293L187 292M234 292L235 293L234 292M265 292L266 293L265 292M267 292L268 293L267 292M333 292L334 293L333 292M167 293L168 294L167 293M237.667 293.333L238.333 293.667L237.667 293.333M262 293L263 294L262 293M266 293L267 294L266 293M241.667 294.333L242.333 294.667L241.667 294.333M257.667 294.333L258.333 294.667L257.667 294.333M311 294L312 295L311 294M315 294L316 295L315 294M332 294L333 295L332 294M168 295L169 296L168 295M189 295L191 297L189 295M250 295L251 296L250 295M331 296L332 297L331 296M169 297L170 298L169 297M308 298L306 301L308 298M329 299L330 300L329 299M171 300L172 301L171 300M328 301L327 303L328 301M172 302L174 304L172 302M325 303L326 304L325 303M324 304L325 305L324 304M175 305L176 306L175 305M300 306L298 309L300 306M176 307L177 308L176 307M175 308L176 309L175 308M176 309L177 310L176 309M203 309L205 311L203 309M177 310L178 311L177 310M178 311L179 312L178 311M294 311L295 312L294 311M179 312L180 313L179 312M207 312L208 313L207 312M180 313L181 314L180 313M291 313L292 314L291 313M181 314L182 315L181 314M211 314L212 315L211 314M314 314L315 315L314 314M182 315L183 316L182 315M184 315L185 316L184 315M210 315L211 316L210 315M289 315L290 316L289 315M292 315L293 316L292 315M212 316L213 317L212 316M287 316L288 317L287 316M182 317L183 318L182 317M184 317L185 318L184 317M214 317L215 318L214 317M181 318L182 319L181 318M318 318L319 319L318 318M180 319L181 320L180 319M186 319L187 320L186 319M218 319L219 320L218 319M221 319L222 320L221 319M278 319L279 320L278 319M179 320L180 321L179 320M187 320L188 321L187 320M279 320L280 321L279 320M320 320L321 321L320 320M178 321L179 322L178 321M177 322L178 323L177 322M189 322L190 323L189 322M230 322L231 323L230 322M233 322L234 323L233 322M322 322L323 323L322 322M176 323L177 324L176 323M190 323L191 324L190 323M192 323L193 324L192 323M229 323L230 324L229 323M175 324L176 325L175 324M191 324L192 325L191 324M194.667 324.333L195.333 324.667L194.667 324.333M235.667 324.333L236.333 324.667L235.667 324.333M263.667 324.333L264.333 324.667L263.667 324.333M305 324L306 325L305 324M324 324L325 325L324 324M174 325L175 326L174 325M193 325L194 326L193 325M196 325L197 326L196 325M243 325L243 326L248 326L243 325M252 325L252 326L257 326L252 325M173 326L174 327L173 326M326 326L327 327L326 326M172 327L173 328L172 327M302 327L303 328L302 327M171 328L172 329L171 328M328 328L331 331L328 328M170 329L171 330L170 329M299 329L300 330L299 329M169 330L170 331L169 330M202 330L203 331L202 330M168 331L169 332L168 331M204 331L205 332L204 331M167 332L168 333L167 332M294 332L295 333L294 332M332 332L333 333L332 332M166 333L167 334L166 333M292 333L293 334L292 333M165 334L166 335L165 334M290 334L291 335L290 334M334 334L335 335L334 334M164 335L165 336L164 335M212 335L213 336L212 335M288 335L289 336L288 335M335 335L336 336L335 335M163 336L164 337L163 336M214 336L215 337L214 336M336 336L337 337L336 336M162 337L163 338L162 337M217 337L218 338L217 337M283 337L284 338L283 337M337 337L338 338L337 337M161 338L162 339L161 338M219 338L220 339L219 338M280 338L281 339L280 338M338 338L339 339L338 338M160 339L161 340L160 339M223 339L224 340L223 339M277 339L278 340L277 339M339 339L340 340L339 339M159 340L160 341L159 340M226 340L227 341L226 340M274 340L275 341L274 340M340 340L341 341L340 340M158 341L159 342L158 341M230.667 341.333L231.333 341.667L230.667 341.333M269 341L270 342L269 341M341 341L342 342L341 341z"/>
</svg>
